<?xml version="1.0" standalone="no"?>
<!DOCTYPE svg PUBLIC "-//W3C//DTD SVG 1.1//EN" "http://www.w3.org/Graphics/SVG/1.1/DTD/svg11.dtd" >
<svg xmlns="http://www.w3.org/2000/svg">
<metadata>Generated by IcoMoon</metadata>
<defs>
<font id="icomoon" horiz-adv-x="1024">
<font-face units-per-em="1024" ascent="960" descent="-64" />
<missing-glyph horiz-adv-x="1024" />
<glyph unicode="&#x20;" horiz-adv-x="512" d="" />
<glyph unicode="&#xe900;" glyph-name="pen" d="M895.232 689.664l-30.080-30.784-144.768 144.32 30.656 30.144c37.952 37.248 99.712 37.44 137.856 0.512l4.48-4.224c19.008-18.432 29.632-43.2 30.080-69.632 0.256-26.432-9.728-51.392-28.224-70.336zM274.048 54.336l-172.8-16.256 12.544 169.152 536.768 527.424 146.176-145.728-522.688-534.592zM961.28 900.16l-4.48 4.096c-77.248 74.944-197.76 74.176-274.368-1.088l-642.432-631.232c-13.568-13.248-21.824-31.040-23.296-49.92l-16.576-223.040c-1.216-17.28 5.056-34.176 17.536-46.272 10.88-10.752 25.6-16.704 40.768-16.704 1.792 0 3.712 0.128 5.568 0.256l226.432 21.248c18.24 1.792 35.392 9.984 48.448 23.168l626.304 640.576c36.8 37.568 56.704 87.36 56.064 140.032-0.704 52.736-21.888 101.888-60.032 138.88z" />
<glyph unicode="&#xe901;" glyph-name="add-oval" d="M874.048 810.048c199.936-199.936 199.936-524.16 0-724.096s-524.16-199.936-724.096 0c-199.936 199.936-199.936 524.16 0 724.096s524.16 199.936 724.096 0zM210.304 749.696c-166.592-166.592-166.592-436.8 0-603.392 166.592-166.656 436.8-166.656 603.392 0 166.656 166.592 166.656 436.8 0 603.392-166.592 166.656-436.8 166.656-603.392 0zM467.2 627.2v-134.4h-134.4c-24.704 0-44.8-20.096-44.8-44.8s20.096-44.8 44.8-44.8h134.4v-134.4c0-24.704 20.096-44.8 44.8-44.8s44.8 20.096 44.8 44.8v134.4h134.4c24.704 0 44.8 20.096 44.8 44.8s-20.096 44.8-44.8 44.8h-134.4v134.4c0 24.704-20.096 44.8-44.8 44.8s-44.8-20.096-44.8-44.8z" />
<glyph unicode="&#xe902;" glyph-name="copy" d="M707.392 961.152c59.968 0 109.376-46.4 114.176-105.152l0.384-9.408v-20.672h22.4c60.032 0 109.376-46.4 114.112-105.152l0.384-9.344v-659.776c0-59.968-46.336-109.312-105.088-114.112l-9.344-0.384h-527.808c-59.968 0-109.376 46.4-114.176 105.152l-0.384 9.344v20.672h-22.4c-59.968 0-109.312 46.336-114.112 105.152l-0.384 9.408v659.712c0 59.968 46.4 109.376 105.152 114.176l9.344 0.384h527.744zM844.352 749.76h-527.68c-15.552 0-28.416-9.472-34.304-22.72l-2.048-5.952-1.984-669.44c0-19.008 13.888-34.816 32.128-37.824l6.208-0.512h527.808c19.008 0 34.816 13.952 37.76 32.128l0.512 6.208v659.776c0 19.008-13.888 34.816-32.064 37.824l-6.208 0.512zM736 224c17.664 0 32-14.336 32-32v-12.8c0-17.664-14.336-32-32-32h-320c-17.664 0-32 14.336-32 32v12.8c0 17.664 14.336 32 32 32h320zM707.392 884.928h-527.744c-19.008 0-34.816-13.952-37.824-32.128l-0.512-6.208v-659.712c0-19.072 13.952-34.88 32.128-37.888l6.208-0.448h22.4v562.88c0 59.968 46.4 109.312 105.152 114.112l9.408 0.384h429.12v20.672c0 19.008-13.888 34.88-32.128 37.888l-6.208 0.448zM736 416c17.664 0 32-14.336 32-32v-12.8c0-17.664-14.336-32-32-32h-320c-17.664 0-32 14.336-32 32v12.8c0 17.664 14.336 32 32 32h320zM736 608c17.664 0 32-14.336 32-32v-12.8c0-17.664-14.336-32-32-32h-320c-17.664 0-32 14.336-32 32v12.8c0 17.664 14.336 32 32 32h320z" />
<glyph unicode="&#xe903;" glyph-name="download" d="M976.64 398.528c26.112 0 47.36-21.376 47.36-47.808v-271.68c0-78.976-63.488-143.040-141.824-143.040h-740.352c-78.272 0-141.824 64.064-141.824 143.040v271.68c0 26.432 21.184 47.808 47.36 47.808s47.36-21.376 47.36-47.808v-271.68c0-26.24 21.12-47.488 47.104-47.488h740.352c25.984 0 47.104 21.248 47.104 47.488v271.68c0 26.432 21.184 47.808 47.36 47.808zM511.872 960c26.24 0 47.36-21.376 47.36-47.744v-488.576l115.328 128.32c17.664 19.52 47.552 21.056 66.944 3.264 19.392-17.664 20.928-47.808 3.328-67.456l-174.464-193.92c-14.848-16.64-36.16-26.176-58.496-26.176-22.208 0-43.52 9.472-58.624 26.24l-174.848 195.328c-17.472 19.648-15.936 49.92 3.456 67.52 19.392 17.664 49.344 16.128 66.88-3.52l115.84-129.408v488.384c0 26.368 21.12 47.744 47.36 47.744z" />
<glyph unicode="&#xe904;" glyph-name="filters" d="M735.232 171.136c27.84 0 50.368-22.592 50.368-50.432 0-27.776-22.528-50.368-50.368-50.368h-446.464c-27.84 0-50.432 22.592-50.432 50.368 0 27.84 22.592 50.432 50.432 50.432zM797.376 476.096c27.904 0 50.432-22.592 50.432-50.432 0-27.776-22.528-50.368-50.432-50.368h-570.752c-27.84 0-50.368 22.592-50.368 50.368 0 27.84 22.528 50.432 50.368 50.432zM909.568 768c27.84 0 50.432-22.592 50.432-50.432 0-27.776-22.592-50.368-50.432-50.368h-795.136c-27.84 0-50.432 22.592-50.432 50.368 0 27.84 22.592 50.432 50.432 50.432z" />
<glyph unicode="&#xe905;" glyph-name="repeat" d="M921.216 448c28.992 0 52.544-23.552 52.544-52.608v-105.536c0-126.016-102.144-228.16-228.16-228.16h-516.032l37.504-34.24c21.568-19.52 23.040-52.8 3.52-74.304-19.584-21.44-52.8-23.040-74.304-3.392l-153.152 139.52c-14.976 13.568-14.784 37.12 0.192 50.56l152.96 136.576c21.76 19.328 54.976 17.472 74.304-4.224 19.264-21.632 17.472-54.912-4.224-74.24l-34.752-31.104h513.984c67.968 0 123.008 55.040 123.008 123.008v105.664c0 28.992 23.552 52.48 52.608 52.48zM744.256 942.848c19.584 21.44 52.8 23.040 74.368 3.456l151.936-138.432c15.616-14.208 15.488-38.848-0.256-52.864l-151.744-135.488c-21.696-19.328-54.912-17.472-74.24 4.224-19.328 21.632-17.472 54.912 4.16 74.176l34.816 31.104h-514.048c-67.904 0-122.944-55.040-122.944-122.944v-105.6c0-28.992-23.552-52.544-52.608-52.544s-52.608 23.552-52.608 52.608v105.536c0 125.952 102.208 228.16 228.16 228.16h516.032l-37.504 34.24c-21.504 19.52-23.040 52.8-3.52 74.24z" />
<glyph unicode="&#xe906;" glyph-name="save" d="M715.008 960c33.92 0 66.496-13.44 90.496-37.504l180.992-180.992c24-24 37.504-56.576 37.504-90.496v-587.008c0-70.72-57.28-128-128-128h-768c-70.72 0-128 57.28-128 128v768c0 70.72 57.28 128 128 128h587.008zM128 876.8c-22.656 0-41.408-16.832-44.416-38.72l-0.384-6.080v-768c0-22.656 16.832-41.408 38.72-44.416l6.080-0.384h768c22.656 0 41.408 16.832 44.416 38.72l0.384 6.080v587.008c0 9.472-3.008 18.688-8.512 26.24l-4.608 5.44-163.072 163.008v-45.76c0-55.296-42.368-100.608-96.448-105.216l-9.088-0.384h-357.632c-55.232 0-100.544 42.432-105.216 96.448l-0.32 9.216v76.8h-67.904zM512 576c106.048 0 192-85.952 192-192s-85.952-192-192-192-192 85.952-192 192 85.952 192 192 192zM512 492.8c-60.096 0-108.8-48.704-108.8-108.8s48.704-108.8 108.8-108.8 108.8 48.704 108.8 108.8-48.704 108.8-108.8 108.8zM279.104 876.8v-76.864c0-10.88 7.68-19.84 17.92-21.952l4.48-0.448h357.568c10.816 0 19.84 7.68 21.952 17.92l0.448 4.48v76.864h-402.432z" />
<glyph unicode="&#xe907;" glyph-name="trash" d="M647.232 960c54.336 0 98.56-44.16 98.56-98.496v-65.536h190.080c25.344 0 45.824-20.48 45.824-45.888 0-25.216-20.48-45.76-45.76-45.76h4.736l-34.752-632.704c-4.288-76.096-62.336-135.616-132.16-135.616h-533.76c-69.952 0-128 59.584-132.16 135.68l-34.88 632.64h4.8c-25.28 0-45.76 20.48-45.76 45.76 0 25.344 20.48 45.888 45.76 45.888h202.624v65.472c-0.064 54.4 44.096 98.56 98.496 98.56zM850.112 704.32h-686.528l34.56-627.648c1.6-28.16 19.904-50.176 41.856-50.176h533.76c21.888 0 40.32 22.016 41.856 50.176l34.496 627.648zM370.112 576c24.96 0 45.312-20.288 45.312-45.248v-323.52c0-24.96-20.288-45.248-45.248-45.248s-45.248 20.288-45.248 45.248v323.52c0 24.96 20.288 45.248 45.248 45.248zM628.736 576c24.96 0 45.248-20.288 45.248-45.248v-323.52c0-24.96-20.224-45.248-45.248-45.248-24.96 0-45.184 20.288-45.184 45.248v323.52c0 24.96 20.224 45.248 45.184 45.248zM647.296 869.504h-268.416c-4.48 0-8.064-3.584-8.064-8v-65.536h284.48v65.472c0 4.416-3.648 8-8.064 8z" />
<glyph unicode="&#xe908;" glyph-name="add-opportunity" d="M593.664 958.72c28.288 0 51.2-22.912 51.2-51.2 0-28.352-22.912-51.264-51.2-51.264-127.104 0-212.8-7.936-348.608-34.56l-46.72-9.344v-455.68c199.296 29.44 395.904 30.72 589.696 3.84l24.768-3.648v119.168c0 26.112 19.584 47.68 44.8 50.816l6.4 0.448c26.112 0 47.68-19.584 50.816-44.8l0.384-6.464v-179.584c0-32-28.928-56.128-60.352-50.432-215.040 39.104-433.792 41.472-656.448 6.976v-265.792c0-26.112-19.52-47.68-44.8-50.88l-6.4-0.32c-26.112 0-47.616 19.584-50.816 44.8l-0.384 6.4v866.752c0 24.128 16.832 44.992 40.448 50.048 197.312 42.56 297.152 54.784 457.216 54.784zM864 960c27.52 0 50.24-20.608 53.568-47.296l0.448-6.784v-51.968h51.968c29.824 0 54.016-24.192 54.016-54.016 0-27.52-20.608-50.304-47.232-53.632l-6.784-0.448h-51.968v-52.032c0-29.824-24.192-54.080-54.016-54.080-27.52 0-50.24 20.672-53.568 47.296l-0.448 6.784v52.032h-51.968c-29.824 0-54.016 24.192-54.016 54.080 0 27.52 20.608 50.304 47.232 53.632l6.784 0.384h51.968v51.968c0 29.888 24.192 54.080 54.016 54.080z" />
<glyph unicode="&#xe909;" glyph-name="add-task" d="M784-64c128.256 0 233.024 100.608 239.68 227.2l0.32 12.8v307.968c0 26.496-21.504 48-48 48-24.32 0-44.352-18.048-47.552-41.472l-0.448-6.528v-307.968c0-76.16-59.2-138.624-134.144-143.68l-9.856-0.32h-544c-76.16 0-138.624 59.2-143.68 134.144l-0.32 9.856v544c0 76.16 59.2 138.624 134.144 143.68l9.856 0.32h302.4c26.496 0 48 21.504 48 48 0 24.32-18.048 44.352-41.472 47.552l-6.528 0.448h-302.4c-128.256 0-233.024-100.608-239.68-227.2l-0.32-12.8v-544c0-128.256 100.608-233.024 227.2-239.68l12.8-0.32h544zM864 960c27.52 0 50.24-20.608 53.568-47.232l0.384-6.784v-51.84h52.032c29.824 0 54.016-24.256 54.016-54.080 0-27.52-20.672-50.24-47.232-53.568l-6.784-0.384h-52.032v-52.032c0-29.76-24.192-53.952-53.952-53.952-27.52 0-50.24 20.608-53.568 47.232l-0.448 6.72v52.032h-51.968c-29.824 0-54.016 24.192-54.016 53.952 0 27.52 20.608 50.24 47.232 53.632l6.784 0.384h51.968v51.904c0 29.824 24.192 54.016 54.016 54.016zM753.024 641.92c17.92-16.128 20.032-44.608 4.672-63.488l-262.080-322.88c-11.072-13.632-30.976-15.808-44.736-4.928l-177.856 140.8c-18.816 14.976-22.656 43.2-8.512 63.168 14.144 19.84 40.832 24 59.712 8.96l138.688-109.824 229.952 283.392c15.36 18.816 42.368 21.056 60.16 4.864z" />
<glyph unicode="&#xe90a;" glyph-name="add-to-group" d="M355.712 403.776c193.792 0 355.712-105.088 355.712-243.456v-6.528c0-78.336-63.424-141.76-141.76-141.76h-427.904c-78.336 0-141.76 63.488-141.76 141.76v6.528c0 138.368 161.92 243.52 355.712 243.52zM355.712 314.176c-147.84 0-258.56-71.168-265.728-146.048l-0.384-7.808v-6.528c0-26.624 19.84-48.512 45.632-51.712l6.528-0.448h427.904c26.624 0 48.512 19.84 51.776 45.632l0.384 6.528v6.528c0 77.696-113.152 153.856-266.112 153.856zM864 960c27.52 0 50.24-20.608 53.568-47.232l0.384-6.784v-51.84h52.032c29.824 0 54.016-24.256 54.016-54.080 0-27.52-20.672-50.24-47.232-53.568l-6.784-0.384h-52.032v-52.032c0-29.76-24.192-53.952-53.952-53.952-27.52 0-50.24 20.608-53.568 47.232l-0.448 6.72v52.032h-51.968c-29.824 0-54.016 24.192-54.016 53.952 0 27.52 20.608 50.24 47.232 53.632l6.784 0.384h51.968v51.904c0 29.824 24.192 54.016 54.016 54.016zM415.36 888c75.52-20.032 136.32-80.768 156.352-156.288 44.992-170.24-107.136-322.368-277.248-277.248-75.52 20.032-136.32 80.768-156.288 156.224-45.056 170.24 107.072 322.432 277.248 277.312zM224.896 633.6c11.712-44.352 48.192-80.832 92.608-92.544 103.68-27.52 195.072 63.936 167.68 167.68-10.88 40.96-42.816 75.136-82.56 89.408l-10.112 3.2c-103.68 27.456-195.136-64-167.68-167.744z" />
<glyph unicode="&#xe90b;" glyph-name="calendar" d="M892.032 60.48h-760.064c-24.32 0-44.16 19.84-44.16 44.16v372.864h848.448v-372.864c0-24.32-19.84-44.16-44.16-44.16zM131.904 756.8h143.040v-71.68c0-24.192 19.648-43.84 43.904-43.84 24.192 0 43.904 19.648 43.904 43.904v71.68h298.368v-71.68c0-24.256 19.712-43.904 43.904-43.904 24.256 0 43.904 19.648 43.904 43.904v71.68h143.040c24.32 0 44.16-19.84 44.16-44.16v-147.456h-848.32v147.392c0 24.448 19.84 44.16 44.16 44.16zM892.096 844.608h-143.040v71.488c0 24.256-19.648 43.904-43.904 43.904-24.192 0-43.904-19.648-43.904-43.904v-71.488h-298.368v71.488c-0.064 24.256-19.84 43.904-43.968 43.904-24.256 0-43.904-19.648-43.904-43.904v-71.488h-143.040c-72.768 0-131.968-59.136-131.968-131.968v-608c0-72.704 59.2-131.968 131.968-131.968h760.064c72.768 0 131.968 59.264 131.968 131.968v608c0 72.832-59.2 131.968-131.968 131.968z" />
<glyph unicode="&#xe90c;" glyph-name="calendar-time" d="M730.112 547.712c161.984 0 293.888-131.84 293.888-293.888s-131.84-293.952-293.888-293.952c-162.112 0-293.952 131.904-293.952 293.952s131.84 293.888 293.952 293.888zM705.088 947.2c24.192 0 43.84-19.648 43.84-43.904v-71.488h143.104c72.896 0 131.904-59.072 131.904-131.968v-49.664c0-24.32-19.648-43.84-43.84-43.84-24.256 0-43.904 19.584-43.904 43.84v49.664c0 24.448-19.776 44.16-44.16 44.16h-143.104v-71.68c0-24.192-19.648-43.84-43.84-43.84-24.256 0-43.904 19.648-43.904 43.904v71.68h-298.368v-71.68c0-24.256-19.648-43.904-43.84-43.904-24.256 0-43.904 19.648-43.904 43.904v71.68h-143.040c-24.32 0-44.288-19.904-44.288-44.16v-608c0-24.32 19.904-44.16 44.16-44.16h202.432c24.256 0 43.904-19.712 43.904-43.904 0-24.256-19.648-43.904-43.904-43.904h-202.368c-72.896 0-131.968 59.008-131.968 131.968v608c0 72.832 59.072 131.904 131.968 131.904h143.104v71.488c0 24.256 19.648 43.904 43.904 43.904 24.192 0 43.84-19.648 43.84-43.904v-71.488h298.368v71.488c0 24.256 19.648 43.904 43.904 43.904zM789.312 464.064c-165.76 44.032-313.536-103.68-269.504-269.44 19.328-72.832 78.144-131.776 151.040-151.104 165.76-44.032 313.6 103.808 269.568 269.568-19.392 72.896-78.272 131.712-151.104 151.040zM725.696 400.192c20.928 0 37.952-16.896 38.016-37.76l0.448-122.88 42.816-24.768c18.112-10.496 24.32-33.664 13.824-51.84-10.432-18.048-33.6-24.256-51.776-13.76l-52.288 30.208c-17.472 10.112-28.288 28.8-28.288 48.896l-0.512 133.888c0 20.928 16.832 37.888 37.76 38.016z" />
<glyph unicode="&#xe90d;" glyph-name="files" d="M892.032 960c72.768 0 131.968-59.2 131.968-131.968v-760.064c0-72.768-59.2-131.968-131.968-131.968h-760.064c-72.768 0-131.968 59.2-131.968 131.968v760.064c0 72.768 59.2 131.968 131.968 131.968zM936.192 225.536h-848.384v-157.568c0-24.32 19.84-44.16 44.16-44.16h760.128c24.32 0 44.16 19.84 44.16 44.16v157.568zM892.032 872.256h-760.064c-24.32 0-44.16-19.84-44.16-44.16v-514.816h848.448v514.752c0 24.32-19.84 44.16-44.16 44.16zM729.6 636.544c24.192 0 43.904-19.648 43.904-43.84 0-24.256-19.712-43.904-43.904-43.904h-435.2c-24.192 0-43.84 19.648-43.84 43.904 0 24.192 19.648 43.84 43.84 43.84z" />
<glyph unicode="&#xe90e;" glyph-name="home" d="M886.080 49.216c0-8.768-7.040-15.936-15.808-15.936h-175.936v255.36c0 101.12-82.304 183.424-183.36 183.424-101.184 0-183.488-82.304-183.488-183.424v-255.296h-175.808c-8.768 0-15.936 7.168-15.936 15.936v494.72c0 4.608 2.048 8.96 5.504 12.032l352.128 302.592c3.072 2.624 6.848 3.84 10.56 3.84s7.424-1.152 10.368-3.648l366.080-303.296c3.648-2.944 5.76-7.552 5.76-12.224v-494.144zM424.832 33.28v255.36c0 47.488 38.592 86.144 86.144 86.144 47.36 0 86.080-38.656 86.080-86.144v-255.296h-172.224zM942.464 630.464l-366.080 303.36c-42.88 35.392-104.32 34.88-146.432-1.408l-352.128-302.528c-25.024-21.504-39.424-52.736-39.424-85.824v-494.848c0-62.4 50.816-113.216 113.216-113.216h718.656c62.4 0 113.088 50.816 113.088 113.216v494.080c0 33.92-14.848 65.664-40.96 87.168z" />
<glyph unicode="&#xe90f;" glyph-name="news" d="M893.76 915.2c71.872 0 130.24-58.368 130.24-130.24v-677.12c0-71.936-58.368-130.304-130.24-130.304h-734.592c-87.872 0.064-159.168 71.296-159.168 159.168v374.336c0 23.936 19.392 43.328 43.328 43.328s43.328-19.392 43.328-43.328v-374.336c0-40.064 32.448-72.512 72.512-72.512h26.112c-4.864 13.696-8.064 28.288-8.064 43.648v677.12c0.064 71.872 58.368 130.24 130.24 130.24zM893.76 828.544h-586.24c-24.064 0-43.648-19.584-43.648-43.584v-677.12c0-24.064 19.584-43.648 43.584-43.648h586.24c24.064 0 43.648 19.584 43.648 43.648v677.12c0 24-19.584 43.584-43.584 43.584zM758.848 277.504c23.936 0 43.328-19.328 43.328-43.264s-19.392-43.328-43.328-43.328h-323.392c-23.936 0-43.328 19.392-43.328 43.328s19.392 43.264 43.328 43.264zM758.848 476.928c23.936 0 43.328-19.392 43.328-43.328s-19.392-43.328-43.328-43.328h-323.392c-23.936 0-43.328 19.392-43.328 43.328s19.392 43.328 43.328 43.328zM758.848 678.912c23.936 0 43.328-19.328 43.328-43.328 0-23.872-19.392-43.328-43.328-43.328h-323.392c-23.936 0-43.328 19.456-43.328 43.328 0 24 19.392 43.328 43.328 43.328z" />
<glyph unicode="&#xe910;" glyph-name="notifications" d="M511.68 960c183.424-0.064 332.032-148.8 332.16-333.376-0.064-2.432-0.192-50.304-0.192-79.040v-17.92c-0.128-99.84 18.688-161.92 51.968-207.232 5.376-7.296 11.072-14.144 17.92-21.632 3.968-4.416 17.28-18.432 18.176-19.392h0.064c59.264-64 15.040-163.328-65.92-169.984l-8.576-0.384-130.56 0.128c-5.824-18.304-7.168-21.568-12.096-34.048-35.328-89.28-94.72-141.12-196.736-141.12-110.080 0.192-167.936 64-208 175.296l-144.448 0.128c-89.472 0-133.824 106.496-74.24 170.432 0.896 0.96 14.272 14.912 18.24 19.328 6.848 7.488 12.608 14.336 17.984 21.632 33.28 45.184 52.224 107.2 52.16 207.104l-0.064 92.352v5.76c0 183.488 148.736 332.096 332.16 331.968zM406.72 105.344c26.24-55.040 59.328-81.92 111.232-81.92 59.84 0 90.688 25.728 113.792 81.92zM511.68 872.576c-135.168 0.064-244.8-109.44-244.8-243.968l0.128-87.552v-11.136c0-117.888-24.384-198.144-69.248-259.008-7.36-9.984-15.040-19.136-23.808-28.736-4.736-5.12-18.56-19.648-18.816-19.968-8.064-8.64-1.92-23.424 10.368-23.424l691.776-0.32c11.712 0 18.624 14.528 10.432 23.424-0.704 0.832-14.144 14.912-18.816 20.032-8.704 9.6-16.384 18.752-23.68 28.8-44.8 60.864-69.12 141.184-68.992 259.008 0 19.136 0.128 94.72 0.256 97.92-0.128 135.296-109.696 244.928-244.8 244.928z" />
<glyph unicode="&#xe911;" glyph-name="organization" d="M281.6 960c22.976 0 41.6-18.624 41.6-41.6v-86.4h60.8c35.328 0 64-28.672 64-64v-64h64c35.328 0 64-28.672 64-64v-620.8h64v492.8c0 35.328 28.672 64 64 64h86.4v86.4c0 22.976 18.624 41.6 41.6 41.6s41.6-18.624 41.6-41.6v-86.4h86.4c35.328 0 64-28.672 64-64v-576h-1024v704c0 35.328 28.672 64 64 64h64v64c0 35.328 28.672 64 64 64h48v86.4c0 22.976 18.624 41.6 41.6 41.6zM492.8 620.8h-409.6v-601.6h409.6v601.6zM940.8 492.8h-217.6v-473.6h217.6v473.6zM406.4 192c22.976 0 41.6-18.624 41.6-41.6s-18.624-41.6-41.6-41.6h-236.8c-22.976 0-41.6 18.624-41.6 41.6s18.624 41.6 41.6 41.6h236.8zM854.4 224c22.976 0 41.6-18.624 41.6-41.6s-18.624-41.6-41.6-41.6h-44.8c-22.976 0-41.6 18.624-41.6 41.6s18.624 41.6 41.6 41.6h44.8zM406.4 352c22.976 0 41.6-18.624 41.6-41.6s-18.624-41.6-41.6-41.6h-236.8c-22.976 0-41.6 18.624-41.6 41.6s18.624 41.6 41.6 41.6h236.8zM854.4 384c22.976 0 41.6-18.624 41.6-41.6s-18.624-41.6-41.6-41.6h-44.8c-22.976 0-41.6 18.624-41.6 41.6s18.624 41.6 41.6 41.6h44.8zM406.4 512c22.976 0 41.6-18.624 41.6-41.6s-18.624-41.6-41.6-41.6h-236.8c-22.976 0-41.6 18.624-41.6 41.6s18.624 41.6 41.6 41.6h236.8zM364.8 748.8h-153.6v-25.6h153.6v25.6z" />
<glyph unicode="&#xe912;" glyph-name="portfolio" d="M936.256 120.384c0-22.592-21.312-43.904-43.904-43.904h-760.704c-22.592 0-43.904 21.312-43.904 43.904v219.712h238.080v-20.096c0-63.36 51.648-115.008 115.008-115.008h142.272c63.36 0 115.008 51.648 115.008 115.008v20.16h238.080v-219.712zM413.632 340.096h196.736v-20.096c0-14.976-12.224-27.2-27.264-27.2h-142.272c-14.976 0-27.2 12.16-27.2 27.2v20.16zM131.648 632.704h760.704c22.592 0 43.904-21.312 43.904-43.904v-153.856h-848.448v153.856c0 22.592 21.248 43.904 43.84 43.904zM365.696 808.256h292.608c22.592 0 43.84-21.312 43.84-43.904v-43.904h-380.224v43.904c0 22.592 21.248 43.904 43.84 43.904zM892.352 720.448h-102.4v43.904c0 71.36-60.352 131.648-131.648 131.648h-292.608c-71.296 0-131.648-60.288-131.648-131.648v-43.904h-102.4c-71.36 0-131.648-60.288-131.648-131.648v-468.416c0-71.36 60.288-131.648 131.648-131.648h760.704c71.36 0 131.648 60.288 131.648 131.648v468.416c0 71.36-60.288 131.648-131.648 131.648z" />
<glyph unicode="&#xe913;" glyph-name="search" d="M715.136 837.312c152.448-152.448 162.816-393.216 31.104-557.696l264.128-264.128c18.176-18.176 18.176-47.68 0-65.856s-47.68-18.176-65.856 0l-264.128 264.128c-164.48-131.712-405.248-121.344-557.696 31.104-163.584 163.584-163.584 428.8 0 592.448 163.584 163.584 428.8 163.584 592.448 0zM188.544 771.456c-127.232-127.232-127.232-333.504 0-460.8 127.232-127.168 333.504-127.168 460.8 0 127.168 127.296 127.168 333.568 0 460.8-127.296 127.232-333.568 127.232-460.8 0z" />
<glyph unicode="&#xe914;" glyph-name="task" d="M791.296 960c128.512 0 232.704-104.192 232.704-232.704v-558.592c0-128.512-104.192-232.704-232.704-232.704h-558.592c-128.512 0-232.704 104.192-232.704 232.704v558.592c0 128.512 104.192 232.704 232.704 232.704h558.592zM791.296 866.88h-558.592c-77.12 0-139.584-62.464-139.584-139.584v-558.592c0-77.12 62.464-139.584 139.584-139.584h558.592c77.12 0 139.584 62.464 139.584 139.584v558.592c0 77.12-62.464 139.584-139.584 139.584zM753.024 641.984c17.92-16.192 20.032-44.672 4.672-63.552l-262.080-322.88c-11.072-13.632-30.976-15.808-44.736-4.928l-177.856 140.8c-18.816 14.976-22.656 43.2-8.512 63.168 14.144 19.84 40.832 24 59.712 8.96l138.688-109.824 229.952 283.392c15.36 18.816 42.368 21.056 60.16 4.864z" />
<glyph unicode="&#xe915;" glyph-name="filter" horiz-adv-x="819" d="M139.264 835.482c-5.734-9.83-4.915-21.299 0.819-31.13 0-0.819 0.819-0.819 0.819-1.638l197.427-260.506v-271.974c0-8.192 4.915-15.565 12.288-18.842 2.458-0.819 4.915-1.638 8.192-1.638 5.734 0 10.65 2.458 14.746 5.734l100.762 100.762c4.096 4.096 5.734 9.011 5.734 14.746v171.213l198.246 261.325c0 0.819 0.819 0.819 0.819 1.638 5.734 9.83 6.554 21.299 0.819 31.13s-15.565 15.565-27.034 15.565h-487.424c-10.65 0-21.299-6.554-26.214-16.384zM632.422 810.906l-188.416-249.856c-2.458-3.277-4.096-8.192-4.096-12.288v-169.574l-59.802-59.802v229.376c0 4.096-1.638 9.011-4.096 12.288l-189.235 249.856h445.645z" />
<glyph unicode="&#xe916;" glyph-name="setting" horiz-adv-x="819" d="M407.552 755.937h-1.147c-112.128-0.28-202.916-91.241-202.916-203.407 0-112.339 91.069-203.408 203.408-203.408 0.173 0 0.346 0 0.518 0.001h0.71c0.488-0.004 1.066-0.007 1.643-0.007 111.479 0 201.851 90.372 201.851 201.851 0 0.492-0.002 0.984-0.005 1.475v-0.076c-0.419 112.433-91.59 203.432-204.049 203.571h-0.014zM408.044 398.275h-0.492c-0.17-0.001-0.372-0.001-0.573-0.001-85.193 0-154.256 69.063-154.256 154.256 0 84.992 68.736 153.929 153.652 154.255h0.932c0.122 0 0.266 0.001 0.41 0.001 85.193 0 154.256-69.063 154.256-154.256 0-85.049-68.829-154.022-153.824-154.255h-0.022zM817.971 581.857q-19.415 68.731-38.912 137.462c-4.997 17.531-6.39 18.35-24.576 19.497-27.443 1.72-54.886 3.523-81.92 5.734-15.155 1.229-14.828 1.556-13.107 16.384 4.096 33.915 7.537 67.994 11.469 103.137-0.438 5.879-4.382 10.733-9.73 12.505l-0.101 0.029q-67.092 32.768-134.021 65.946c-2.515 1.361-5.492 2.199-8.654 2.293l-0.029 0.001c-4.695-0.132-8.879-2.219-11.782-5.473l-0.014-0.016c-25.887-25.231-52.101-50.053-77.988-75.284-1.621-2.433-4.353-4.014-7.455-4.014s-5.834 1.581-7.434 3.981l-0.020 0.033c-28.017 27.689-56.361 54.968-84.541 82.493-2.92 3.83-7.246 6.46-12.194 7.117l-0.094 0.010c-3.683-0.297-7.057-1.385-10.029-3.093l0.116 0.062c-44.81-21.463-89.211-43.172-133.857-64.389-5.704-2.315-9.653-7.813-9.653-14.233 0-1.228 0.144-2.422 0.417-3.566l-0.021 0.104c3.932-36.127 7.373-72.417 11.387-108.544 0.299-0.846 0.472-1.822 0.472-2.838 0-4.841-3.924-8.765-8.765-8.765-0.34 0-0.675 0.019-1.004 0.057l0.040-0.004c-39.813-5.079-79.544-10.65-119.357-16.384-7.286-0.307-13.201-5.799-14.164-12.866l-0.009-0.077c-10.404-47.841-20.89-95.928-31.293-144.179-2.54-11.96-1.147-14.828 8.929-21.299l90.112-56.689c8.192-4.997 8.192-6.554 3.523-14.828l-59.228-101.908c-5.898-10.076-5.571-13.435 1.884-22.364l94.208-113.132c2.424-4.143 6.645-7.008 11.566-7.531l0.067-0.006c3.163 0.15 6.126 0.828 8.861 1.949l99.191 35.98c2.649 1.194 5.722 2.060 8.943 2.443l0.15 0.015c3.441 0 4.751-2.703 7.537-9.667 14.254-35.717 28.672-71.434 42.516-107.315 2.089-7.91 9.18-13.646 17.61-13.646 0.462 0 0.92 0.017 1.374 0.051l-0.060-0.004c48.579 0 97.075 0 145.654 0 12.698 0 15.155 2.13 19.005 14.336 11.141 35.389 22.364 70.779 33.26 106.496 0.286 4.088 3.531 7.333 7.593 7.617l0.026 0.001c1.685-0.049 3.284-0.345 4.785-0.853l-0.115 0.034c36.864-11.059 73.728-21.627 110.756-32.768 3.539-1.272 7.637-2.147 11.894-2.449l0.148-0.008c5.571 0 8.602 3.113 14.582 11.223l85.279 116.49c6.472 8.847 6.472 12.452 0 21.791-19.988 29.737-39.813 59.556-60.047 89.211-1.614 1.652-2.609 3.914-2.609 6.409 0 3.823 2.338 7.099 5.662 8.478l0.061 0.022c32.113 22.692 63.98 45.793 95.928 68.813 9.011 6.717 10.486 10.486 7.782 19.988zM760.627 587.182c-24.576-17.695-49.971-36.045-75.039-53.74-16.119-10.332-26.649-28.155-26.649-48.437 0-13.037 4.35-25.057 11.678-34.689l-0.103 0.141c14.418-21.053 28.918-42.762 42.926-63.652l5.161-7.7-61.686-84.787-20.972 6.062c-24.003 6.963-49.152 14.172-72.991 21.463-5.605 1.79-12.055 2.836-18.744 2.867h-0.016c-26.126-0.046-48.084-17.836-54.47-41.959l-0.089-0.394c-8.192-26.788-16.794-54.067-25.149-80.364l-1.72-5.489h-104.448c-8.192 21.217-16.384 42.353-24.986 62.996l-10.732 26.87c-13.353 33.587-36.291 40.96-53.248 40.96-9.384-0.228-18.248-2.193-26.368-5.585l0.481 0.178-32.768-11.878-46.203-16.384-67.092 80.609 48.988 83.968c18.104 31.048 10.486 62.177-19.825 81.183l-50.217 30.638-22.856 14.418 3.85 18.514q9.093 41.861 18.022 83.804l21.217 2.867c24.576 3.359 50.299 6.881 75.366 10.076 29.504 2.59 52.474 27.181 52.474 57.137 0 2.964-0.225 5.875-0.658 8.718l0.040-0.319c-2.048 18.432-3.932 36.864-5.816 55.296q-1.556 15.483-3.195 30.966l57.344 27.607 37.356 18.104 4.178-4.014c21.627-20.972 43.909-42.68 65.536-64.143 10.493-11.207 25.38-18.191 41.897-18.191 16.438 0 31.261 6.917 41.717 17.999l0.026 0.028q19.169 18.678 38.502 37.192l23.675 22.61 94.044-46.285v-3.686c-2.703-24.576-5.325-48.169-8.192-71.926v-0.819c-0.837-3.799-1.316-8.163-1.316-12.639 0-14.038 4.714-26.975 12.646-37.314l-0.108 0.146c11.369-12.792 27.867-20.812 46.237-20.812 0.247 0 0.494 0.001 0.741 0.004h-0.038c22.938-1.802 46.285-3.441 67.584-4.751q13.844-50.135 28.017-100.762z" />
<glyph unicode="&#xe917;" glyph-name="users" horiz-adv-x="819" d="M303.104 853.504c-72.098 0-131.072-58.974-131.072-131.072s58.974-131.072 131.072-131.072c72.098 0 131.072 58.974 131.072 131.072s-58.974 131.072-131.072 131.072zM581.632 837.12c-58.525 0-106.496-47.971-106.496-106.496s47.971-106.496 106.496-106.496c58.525 0 106.496 47.971 106.496 106.496s-47.971 106.496-106.496 106.496zM303.104 804.352c45.534 0 81.92-36.386 81.92-81.92s-36.386-81.92-81.92-81.92c-45.534 0-81.92 36.386-81.92 81.92s36.386 81.92 81.92 81.92zM581.632 787.968c31.961 0 57.344-25.383 57.344-57.344s-25.383-57.344-57.344-57.344c-31.961 0-57.344 25.383-57.344 57.344s25.383 57.344 57.344 57.344zM581.632 607.744c-69.193 0-130.94-18.671-167.168-56.064-33.888 9.792-71.51 15.104-111.36 15.104-69.704 0-132.833-16.287-180.48-44.288s-81.664-69.904-81.664-119.552v-131.072c0.001-12.867 11.708-24.574 24.576-24.576h475.136c12.868 0.002 24.575 11.709 24.576 24.576v81.92c60.976 0 108.701 0 188.416 0 12.868 0.002 24.575 11.709 24.576 24.576v106.496c0 39.367-26.826 71.684-62.72 91.905s-82.64 30.976-133.888 30.976zM581.632 558.592c44.058 0 83.272-10.019 109.568-24.832s37.888-31.787 37.888-48.896v-81.92h-163.84c0 49.648-34.017 91.551-81.664 119.552-4.995 2.935-10.291 5.775-15.616 8.448 26.376 15.788 67.029 27.648 113.664 27.648zM303.104 517.632c61.909 0 117.414-14.907 155.648-37.376s57.344-50.313 57.344-77.312v-106.496h-425.984v106.496c0 26.999 19.11 54.843 57.344 77.312s93.739 37.376 155.648 37.376z" />
<glyph unicode="&#xe918;" glyph-name="Close" horiz-adv-x="819" d="M463.908 551.448l302.584 302.584c6.924 6.92 10.736 16.124 10.736 25.912 0 9.792-3.812 18.996-10.736 25.916-6.92 6.924-16.124 10.736-25.916 10.736-9.788 0-18.992-3.812-25.912-10.736l-302.584-302.584-302.584 302.584c-14.288 14.288-37.54 14.288-51.828 0-6.924-6.92-10.736-16.124-10.736-25.916 0-9.788 3.812-18.992 10.736-25.912l302.584-302.584-302.584-302.584c-6.924-6.92-10.736-16.124-10.736-25.912 0-9.792 3.812-18.996 10.736-25.916 14.288-14.288 37.54-14.288 51.828 0l302.584 302.584 302.584-302.584c6.92-6.924 16.124-10.736 25.912-10.736 9.792 0 18.996 3.812 25.916 10.736 6.924 6.92 10.736 16.124 10.736 25.916 0 9.788-3.812 18.992-10.736 25.912l-302.584 302.584z" />
</font>
</defs>
</svg>
